<?xml version="1.0" encoding="iso-8859-1"?>
<!-- Generator: Adobe Illustrator 16.0.0, SVG Export Plug-In . SVG Version: 6.00 Build 0)  -->
<!DOCTYPE svg PUBLIC "-//W3C//DTD SVG 1.1//EN" "http://www.w3.org/Graphics/SVG/1.1/DTD/svg11.dtd">
<svg version="1.1" id="Capa_1" xmlns="http://www.w3.org/2000/svg" xmlns:xlink="http://www.w3.org/1999/xlink" x="0px" y="0px"
   width="429.592px" height="429.592px" viewBox="0 0 429.592 429.592" style="enable-background:new 0 0 429.592 429.592;"
   xml:space="preserve">
<g>
  <g>
    <path style="fill: white;" d="M257.187,29.94C162.326,4.236,32.582,66.66,28.298,173.148c-5.508-6.12-11.628-11.628-17.748-17.136
      c-4.896-4.284-11.628,0-10.404,6.12c4.284,31.212,22.644,58.14,42.84,82.007c1.836,2.449,7.344,2.449,9.18,0
      c18.36-23.256,23.868-52.02,26.928-80.171c0.612-4.896-6.12-7.956-9.792-5.508c-7.956,5.508-18.36,9.792-26.928,15.912
      c8.568-47.736,30.6-83.232,74.052-109.548c41.616-25.092,91.8-29.988,139.537-26.316C260.858,39.12,261.471,31.164,257.187,29.94z
       M16.058,175.596c4.284,3.672,7.956,6.732,12.24,10.404c0.612,0.612,1.224,0.612,1.836,1.224c0.612,0.612,1.836,1.224,3.06,1.836
      c1.224,2.448,4.284,4.284,7.344,1.836c7.956-4.896,15.912-9.792,23.868-14.688c-3.06,18.36-7.344,37.332-17.748,52.632
      C33.806,212.928,22.178,195.18,16.058,175.596z"/>
    <path style="fill: white;" d="M421.814,287.592c-32.436,9.791-64.26,22.031-97.92,28.764c-5.508,1.225-5.508,10.404,0,11.627
      c14.688,2.449,28.764,6.732,42.84,9.182c-20.196,15.912-37.944,29.988-63.036,39.779c-29.376,11.016-60.588,15.301-91.8,14.076
      c-66.096-1.836-124.236-36.721-141.984-102.205c-1.224-4.283-8.568-3.672-7.956,1.225c7.344,67.932,67.32,106.488,130.968,113.832
      c54.469,6.121,140.148-4.896,180.541-51.408c1.224,12.852,5.508,25.092,12.852,36.109c3.061,4.283,7.956,4.283,11.017,0
      c18.972-27.541,23.256-61.812,31.823-93.025C430.994,290.653,426.711,286.368,421.814,287.592z M385.706,340.836
      c0-1.225-0.611-2.449-1.224-3.672c3.06-6.121-4.284-10.404-9.18-6.732l-0.612,0.611c0,0,0,0-0.612,0
      c-8.567-2.447-17.136-5.508-25.703-7.955c22.031-5.508,44.063-13.465,66.096-20.197c-6.12,23.869-10.404,48.35-22.645,69.77
      C388.154,362.868,386.318,352.463,385.706,340.836z"/>
    <path style="fill: white;" d="M355.106,80.124c7.956-8.568,14.076-18.36,24.48-24.48c4.896-2.448,4.283-10.404-1.837-11.628
      c-28.764-6.732-58.14-6.732-86.903-6.732c-6.12,0-7.956,6.732-4.284,11.016c18.972,22.644,33.048,48.348,46.512,74.664
      c3.061,5.508,12.24,3.06,12.24-3.06c-0.612-9.792,0.612-18.972,1.224-28.764c52.633,36.72,67.933,104.04,70.992,164.628
      c0,5.508,7.344,4.896,7.956,0C431.606,192.732,409.574,116.844,355.106,80.124z M343.479,74.004
      c-0.612,0.612-1.224,0.612-1.224,1.224c-1.836,0.612-3.061,2.448-3.673,3.672c-0.611,0.612-1.224,1.224-1.224,2.448
      c-0.612,5.508-1.836,11.628-2.448,17.136c-9.18-17.136-18.972-33.66-30.6-48.96c18.972,0,38.556,0.612,56.916,3.672
      C355.106,59.928,349.599,67.272,343.479,74.004z"/>
  </g>
</g>
<g>
</g>
<g>
</g>
<g>
</g>
<g>
</g>
<g>
</g>
<g>
</g>
<g>
</g>
<g>
</g>
<g>
</g>
<g>
</g>
<g>
</g>
<g>
</g>
<g>
</g>
<g>
</g>
<g>
</g>
</svg>
